<?xml version="1.0" encoding="UTF-8" standalone="no"?>
<!-- Created with Inkscape (http://www.inkscape.org/) -->

<svg
   xmlns:dc="http://purl.org/dc/elements/1.1/"
   xmlns:cc="http://creativecommons.org/ns#"
   xmlns:rdf="http://www.w3.org/1999/02/22-rdf-syntax-ns#"
   xmlns:svg="http://www.w3.org/2000/svg"
   xmlns="http://www.w3.org/2000/svg"
   xmlns:sodipodi="http://sodipodi.sourceforge.net/DTD/sodipodi-0.dtd"
   xmlns:inkscape="http://www.inkscape.org/namespaces/inkscape"
   width="210mm"
   height="297mm"
   viewBox="0 0 210 297"
   version="1.1"
   id="svg8"
   inkscape:version="0.48.5 r10040"
   sodipodi:docname="banner.svg">
  <defs
     id="defs2">
    <clipPath
       clipPathUnits="userSpaceOnUse"
       id="clipPath4570">
      <g
         transform="translate(3.553192e-5,-2.5404467e-6)"
         id="use4572"
         inkscape:label="Clip">
        <path
           inkscape:export-ydpi="96"
           inkscape:export-xdpi="96"
           style="fill:#e96e2a;fill-opacity:1;stroke-width:0.99999994"
           d="m 656.88845,667.34257 h -17.5 v -37.19999 c 0,-7.20002 0.6,-12.60001 1.2,-16.30002 2.3,-13.3 8.8,-22.69999 19.4,-28.2 7.1,-3.69998 15.9,-5.59999 26.6,-5.59999 12.6,0 22.8,2.89999 30.8,8.49999 6.3,4.50002 10.8,10.2 13.2,17.3 2.3,6.7 3.6,15.20002 3.6,25.40002 v 36.09999 h -17.3 v -33.50001 c 0,-10.09999 -2.2,-17.59999 -7,-22.39998 -4.1,-4 -11.1,-5.90001 -21.5,-5.90001 -14,0 -22.8,2.99999 -27.1,9.1 -3,4.29999 -4.3,10.99999 -4.3,20.2 v 32.5 z m 17.5,39.90001 h -35 v -22.50002 h 94.9 v 51.90001 c 0,14.99997 -1.8,25.79998 -5.3,31.7 -2.4,4.49999 -5.6,7.69998 -9.7,9.79999 -3.6,2.09999 -7.4,2.99999 -11.5,2.99999 -14.3,0 -23.4,-6.9 -27.6,-20.60001 -1.4,4.80001 -3,8.20001 -4.7,10.40001 -4.8,5.59999 -12.2,8.6 -21.8,9.1 -6.8,0.60001 -11.9,1.59999 -14.4,2.69999 v -25.79999 c 2.5,-0.79999 6.9,-1.6 13.7,-2.40001 3.6,-0.49999 6.5,-0.99998 8.5,-1.59999 2.1,-0.59998 4.1,-1.6 5.9,-2.9 3.9,-2.9 5.7,-7.39999 6.8,-13.39998 0.6,-3.00001 0.2,-6.7 0.2,-11.20002 z m 17.5,0 v 32 c 0,5.29996 0.9,9.09999 2.3,11.39998 2.1,3.5 5.9,5.3 11.1,5.3 5.9,0 9.3,-2.7 10.9,-7.8 0.6,-1.80002 0.7,-4.80001 0.7,-8.8 v -32 h -25 z m 42.4,92.49995 v 22.5 h -94.9 v -22.5 z m -39.9,129.80003 h -15 v -62.4 h -40 v -25.00002 h 49.5 c 14.3,2.5 23.6,2.39998 27.9,5.4 8.7,5.39999 14.1,14.49999 16.1,27.00003 0.7,4.79999 1.4,11.29998 1.4,18.9 v 36.09999 h -17.4 v -33.19999 c 0,-10.7 -0.7,-17.20001 -2,-20.30002 -2.3,-6.09998 -6.8,-8.89999 -14.3,-8.89999 h -6.1 v 62.4 z m 0,105.00014 h -15 v -64.90013 h -40 v -22.50001 h 49.5 c 14.3,0 23.6,1.40001 27.9,4.30001 8.7,5.39999 14.1,14.2 16.1,26.6 0.7,4.8 1.4,10.9 1.4,18.4 v 38.20013 h -17.4 v -35.40013 c 0,-10.6 -0.7,-17.4 -2,-20.4 -2.3,-6.1 -6.8,-9.2 -14.3,-9.2 h -6.1 v 64.90013 z m 39.9,97.4 h -17.4 v -30.5001 c 0,-8.5999 -0.4,-14.7 -1.6,-18.2 -1.2,-3.8 -3.8,-7 -7.8,-9.6 -2.4,-1.4 -5.6,-2.4 -13.1,-2.9 v 61.2001 h -15 v -61.2001 c -7.5,0.5 -12.3,2.6 -15.9,5.9001 -1.6,1.8 -3.3,3.8 -4.2,6.2 -0.9,2.3999 -1.5,5.6 -2,9.6 -0.3,2.6999 -0.5,6.0999 -0.5,9.8999 v 29.5 h -17.5 v -30.5 c 0,-8.2 0.6,-15.1999 1.5,-21.3999 1,-7.0001 3.2,-13.1 6.7,-17.9001 3.3,-4.7999 8.1,-8.7999 14.1,-11.7999 7.4,-3.7 16.1,-5.6 25.8,-5.6 16.4,0 29,5.8 38.1,17.3 3.5,4.5 6,9.3999 7.1,14.7 0.9,4.2 1.5,9.3999 1.5,16 v 39.3 z m -59.9,39.8999 h -35 v -22.5 h 94.9 v 52.9 c 0,15.2001 -1.8,25.8001 -5.3,31.8001 -2.4,4.3 -5.6,7.5 -9.7,9.7999 -3.6,1.9001 -7.4,3.0001 -11.5,3.0001 -14.3,0 -23.4,-6.9 -27.6,-20.8 -1.4,4.8 -3,8.3 -4.7,10.4 -4.8,5.5999 -12.2,8.6 -21.8,9.3 -6.8,0.6 -11.9,1.4 -14.4,2.6 v -25.8001 c 2.5,-0.8 6.9,-1.6 13.7,-2.3999 3.6,-0.3001 6.5,-1.0001 8.5,-1.6001 2.1,-0.5999 4.1,-1.6 5.9,-2.9 3.9,-2.9 5.7,-7.4 6.8,-13.4 0.6,-2.9999 0.2,-6.7 0.2,-11.1999 z m 17.5,0 v 32.9 c 0,5.4001 0.9,9.3 2.3,11.5 2.1,3.4 5.9,5.1 11.1,5.1 5.9,0 9.3,-2.6 10.9,-7.8 0.6,-1.8 0.7,-4.6 0.7,-8.8 v -32.9 z"
           class="st0"
           id="path4643"
           inkscape:connector-curvature="0" />
        <path
           inkscape:export-ydpi="96"
           inkscape:export-xdpi="96"
           style="fill:#e96e2a;fill-opacity:1;stroke-width:0.99999994"
           d="M 734.48845,591.94259 H 716.98846 V 554.7426 c 0,-7.20002 0.6,-12.60001 1.2,-16.30002 2.29999,-13.3 8.79999,-22.69999 19.39999,-28.2 7.1,-3.69998 15.9,-5.59999 26.6,-5.59999 12.6,0 22.8,2.89999 30.8,8.49999 6.3,4.50002 10.8,10.2 13.2,17.3 2.3,6.7 3.6,15.20002 3.6,25.40002 v 36.09999 h -17.3 v -33.50001 c 0,-10.09999 -2.2,-17.59999 -7,-22.39998 -4.1,-4 -11.1,-5.90001 -21.5,-5.90001 -14,0 -22.8,2.99999 -27.1,9.1 -3,4.29999 -4.3,10.99999 -4.3,20.2 v 32.5 z m 17.5,39.90001 h -34.99999 v -22.50002 h 94.89999 v 51.90001 c 0,14.99997 -1.8,25.79998 -5.3,31.7 -2.4,4.49999 -5.6,7.69998 -9.7,9.79999 -3.6,2.09999 -7.4,2.99999 -11.5,2.99999 -14.3,0 -23.4,-6.9 -27.6,-20.60001 -1.4,4.80001 -3,8.20001 -4.7,10.40001 -4.8,5.59999 -12.2,8.6 -21.8,9.1 -6.8,0.60001 -11.89999,1.59999 -14.4,2.69999 v -25.79999 c 2.50001,-0.79999 6.9,-1.6 13.7,-2.40001 3.6,-0.49999 6.5,-0.99998 8.5,-1.59999 2.1,-0.59998 4.1,-1.6 5.9,-2.9 3.9,-2.9 5.7,-7.39999 6.8,-13.39998 0.6,-3.00001 0.2,-6.7 0.2,-11.20002 z m 17.5,0 v 32 c 0,5.29996 0.9,9.09999 2.3,11.39998 2.1,3.5 5.9,5.3 11.1,5.3 5.9,0 9.3,-2.7 10.9,-7.8 0.6,-1.80002 0.7,-4.80001 0.7,-8.8 v -32 h -25 z m 42.4,92.49995 v 22.5 h -94.89999 v -22.5 z m -39.9,129.80004 h -15 v -62.40001 h -39.99999 v -25.00001 h 49.49999 c 14.3,2.5 23.6,2.39998 27.9,5.4 8.7,5.39999 14.1,14.49999 16.1,27.00003 0.7,4.79999 1.4,11.29998 1.4,18.9 v 36.09999 h -17.4 V 820.9426 c 0,-10.7 -0.7,-17.20002 -2,-20.30002 -2.3,-6.09999 -6.8,-8.9 -14.3,-8.9 h -6.1 v 62.40001 z m 0,105.00013 h -15 V 894.2426 h -39.99999 v -22.50002 h 49.49999 c 14.3,0 23.6,1.40001 27.9,4.30001 8.7,5.4 14.1,14.20001 16.1,26.59999 0.7,4.8 1.4,10.89999 1.4,18.4 v 38.20013 h -17.4 v -35.40012 c 0,-10.60001 -0.7,-17.39999 -2,-20.4 -2.3,-6.09999 -6.8,-9.19999 -14.3,-9.19999 h -6.1 v 64.90012 z m 39.9,97.39998 h -17.4 v -30.5001 c 0,-8.5999 -0.4,-14.7 -1.6,-18.2 -1.2,-3.8 -3.8,-7 -7.8,-9.59998 -2.4,-1.4 -5.6,-2.40001 -13.1,-2.9 v 61.20008 h -15 v -61.20008 c -7.5,0.49999 -12.3,2.60001 -15.9,5.90008 -1.6,1.8 -3.3,3.8 -4.2,6.2 -0.9,2.3999 -1.5,5.6 -2,9.6 -0.3,2.6999 -0.5,6.0999 -0.5,9.8999 v 29.5 h -17.5 v -30.5 c 0,-8.2 0.6,-15.1999 1.50001,-21.3999 1,-7.00008 3.19999,-13.09999 6.69999,-17.90008 3.3,-4.79991 8.1,-8.79991 14.1,-11.79989 7.4,-3.70001 16.1,-5.60002 25.8,-5.60002 16.4,0 29,5.79999 38.1,17.3 3.5,4.49999 6,9.39992 7.1,14.69999 0.9,4.2 1.5,9.3999 1.5,16 v 39.3 z m -59.9,39.9 h -34.99999 v -22.5 h 94.89999 v 52.9 c 0,15.2 -1.8,25.8001 -5.3,31.8001 -2.4,4.2999 -5.6,7.5 -9.7,9.7998 -3.6,1.9001 -7.4,3.0001 -11.5,3.0001 -14.3,0 -23.4,-6.9 -27.6,-20.7999 -1.4,4.7999 -3,8.2999 -4.7,10.4 -4.8,5.5999 -12.2,8.5999 -21.8,9.2999 -6.8,0.6 -11.89999,1.4001 -14.4,2.6 v -25.8001 c 2.50001,-0.8 6.9,-1.5999 13.7,-2.3999 3.6,-0.3001 6.5,-1 8.5,-1.6001 2.1,-0.5999 4.1,-1.5999 5.9,-2.9 3.9,-2.9 5.7,-7.3999 6.8,-13.3999 0.6,-3 0.2,-6.7 0.2,-11.2 z m 17.5,0 v 32.8999 c 0,5.4001 0.9,9.3001 2.3,11.5001 2.1,3.3999 5.9,5.1 11.1,5.1 5.9,0 9.3,-2.6001 10.9,-7.8 0.6,-1.8001 0.7,-4.6 0.7,-8.8001 v -32.8999 z"
           class="st0"
           id="path4645"
           inkscape:connector-curvature="0" />
      </g>
    </clipPath>
  </defs>
  <sodipodi:namedview
     id="base"
     pagecolor="#ffffff"
     bordercolor="#666666"
     borderopacity="1.0"
     inkscape:pageopacity="0.0"
     inkscape:pageshadow="2"
     inkscape:zoom="0.7"
     inkscape:cx="386.29338"
     inkscape:cy="651.55042"
     inkscape:document-units="mm"
     inkscape:current-layer="layer1"
     showgrid="false"
     inkscape:window-width="1366"
     inkscape:window-height="721"
     inkscape:window-x="-2"
     inkscape:window-y="-3"
     inkscape:window-maximized="1" />
  <metadata
     id="metadata5">
    <rdf:RDF>
      <cc:Work
         rdf:about="">
        <dc:format>image/svg+xml</dc:format>
        <dc:type
           rdf:resource="http://purl.org/dc/dcmitype/StillImage" />
        <dc:title></dc:title>
      </cc:Work>
    </rdf:RDF>
  </metadata>
  <g
     inkscape:label="Camada 1"
     inkscape:groupmode="layer"
     id="layer1">
    <text
       xml:space="preserve"
       style="font-size:10.58333302px;font-style:normal;font-weight:normal;line-height:1.25;letter-spacing:0px;word-spacing:0px;fill:#e96e2a;fill-opacity:1;stroke:none;font-family:sans-serif"
       x="-114.71425"
       y="46.411278"
       id="text5092"
       inkscape:export-xdpi="96"
       inkscape:export-ydpi="96"
       transform="matrix(0,-1,1,0,0,0)"><tspan
         sodipodi:role="line"
         id="tspan5090"
         x="-114.71425"
         y="46.411278"
         style="fill:#e96e2a;fill-opacity:1" /></text>
    <path
       style="fill:#444444;stroke-width:0.73494607"
       inkscape:connector-curvature="0"
       d="m 90.518894,62.620015 v -1.485246 l -0.872814,-0.29705 c -0.0727,-0.222786 -0.14547,-0.519837 -0.290947,-0.742623 l 0.436417,-0.891149 -1.091024,-0.965409 -0.800087,0.371311 c -0.2182,-0.148525 -0.436407,-0.222789 -0.727344,-0.29705 l -0.29094,-0.891149 h -1.454694 l -0.29094,0.891149 c -0.218204,0.07426 -0.509144,0.148525 -0.727347,0.29705 l -0.800085,-0.371311 -1.018285,1.03967 0.436408,0.891149 c -0.14547,0.222788 -0.218204,0.445576 -0.29094,0.742625 l -0.945551,0.222787 v 1.485246 l 0.872818,0.297051 c 0.07273,0.222786 0.145469,0.519836 0.290939,0.742623 l -0.363674,0.816887 1.018285,1.03967 0.872818,-0.445571 c 0.218207,0.148525 0.43641,0.222786 0.72735,0.29705 l 0.218204,0.965409 h 1.454694 l 0.29094,-0.891148 c 0.218204,-0.07426 0.509144,-0.148525 0.727344,-0.29705 l 0.872817,0.445576 1.018294,-1.039674 -0.436417,-0.891149 c 0.145477,-0.222787 0.218207,-0.445575 0.290947,-0.742623 z m -6.546131,-0.742622 c 0,-1.26246 0.945554,-2.227873 2.182045,-2.227873 1.236491,0 2.182041,0.965413 2.182041,2.227873 0,1.262459 -0.94555,2.227869 -2.182041,2.227869 -1.236491,0 -2.182045,-0.96541 -2.182045,-2.227869 z"
       id="path4496"
       inkscape:export-filename="C:\Produto\ConfigCriffer\projeto\novoico.png"
       inkscape:export-xdpi="96"
       inkscape:export-ydpi="96" />
    <path
       style="fill:#444444;stroke-width:0.73494607"
       inkscape:connector-curvature="0"
       d="m 87.245829,61.877393 c 0,0.614891 -0.488779,1.113934 -1.091021,1.113934 -0.602244,0 -1.091021,-0.499043 -1.091021,-1.113934 0,-0.614892 0.488777,-1.113935 1.091021,-1.113935 0.602242,0 1.091021,0.499043 1.091021,1.113935 z"
       id="path4498"
       inkscape:export-filename="C:\Produto\ConfigCriffer\projeto\novoico.png"
       inkscape:export-xdpi="96"
       inkscape:export-ydpi="96" />
    <path
       style="fill:#444444;stroke-width:0.73494607"
       inkscape:connector-curvature="0"
       d="m 93.428289,59.64952 v -0.742623 h -0.436417 c 0,-0.148526 -0.0727,-0.297048 -0.14547,-0.371312 l 0.290947,-0.297047 -0.509147,-0.519837 -0.290937,0.297047 c -0.14547,-0.07426 -0.21821,-0.148525 -0.363677,-0.148525 V 57.42165 h -0.727347 v 0.445573 c -0.14547,0 -0.290937,0.07426 -0.363677,0.148525 l -0.29094,-0.297047 -0.509137,0.519837 0.29094,0.297047 c -0.0727,0.148525 -0.14547,0.222786 -0.14547,0.371312 H 89.79155 v 0.742623 h 0.436407 c 0,0.148525 0.0727,0.29705 0.14547,0.371314 l -0.29094,0.297048 0.509137,0.519837 0.29094,-0.297051 c 0.145477,0.07426 0.218207,0.148526 0.363677,0.148526 v 0.445575 h 0.727347 v -0.445575 c 0.145467,0 0.290937,-0.07426 0.363677,-0.148526 l 0.290937,0.297051 0.509147,-0.519837 -0.290947,-0.297048 c 0.0727,-0.148526 0.14547,-0.222789 0.14547,-0.371314 z m -1.818371,0.371314 c -0.436407,0 -0.727354,-0.29705 -0.727354,-0.742626 0,-0.445572 0.290947,-0.742623 0.727354,-0.742623 0.43641,0 0.727347,0.297051 0.727347,0.742623 0,0.445576 -0.290937,0.742626 -0.727347,0.742626 z"
       id="path4500"
       inkscape:export-filename="C:\Produto\ConfigCriffer\projeto\novoico.png"
       inkscape:export-xdpi="96"
       inkscape:export-ydpi="96" />
    <path
       style="fill:#444444;stroke-width:0.73494607"
       inkscape:connector-curvature="0"
       d="m 92.991872,66.184608 c -0.0727,-0.222785 -0.14547,-0.445571 -0.29094,-0.668362 l 0.21821,-0.445571 -0.509147,-0.519837 -0.363667,0.29705 c -0.21821,-0.148525 -0.43641,-0.222789 -0.654617,-0.29705 l -0.14547,-0.445576 h -0.727347 l -0.145467,0.445576 c -0.21821,0.07426 -0.436407,0.148525 -0.654617,0.29705 l -0.436407,-0.222789 -0.509147,0.519837 0.218207,0.445576 c -0.145467,0.222786 -0.218207,0.445571 -0.290937,0.668362 l -0.363677,0.07426 v 0.742623 l 0.436407,0.148525 c 0.0727,0.222787 0.145477,0.445574 0.290947,0.668362 l -0.218207,0.445574 0.509137,0.519837 0.436417,-0.222787 c 0.218197,0.148525 0.436407,0.222787 0.654607,0.297047 l 0.0727,0.371315 h 0.727354 l 0.14547,-0.445575 c 0.218197,-0.07426 0.436407,-0.148525 0.654607,-0.297051 l 0.436407,0.222789 0.509147,-0.519837 -0.29094,-0.371312 c 0.14547,-0.222788 0.21821,-0.445575 0.29094,-0.668362 l 0.436407,-0.148525 v -0.742623 z m -2.109308,1.633773 c -0.581877,0 -1.091014,-0.519837 -1.091014,-1.113936 0,-0.594097 0.509137,-1.113933 1.091014,-1.113933 0.581877,0 1.091024,0.519836 1.091024,1.113933 0,0.594099 -0.509147,1.113936 -1.091024,1.113936 z"
       id="path4502"
       inkscape:export-filename="C:\Produto\ConfigCriffer\projeto\novoico.png"
       inkscape:export-xdpi="96"
       inkscape:export-ydpi="96" />
    <path
       inkscape:connector-curvature="0"
       id="XMLID_78_-0"
       class="st0"
       d="m 95.481017,28.580706 v 1.842105 h -3.915789 c -0.757897,0 -1.326317,-0.06316 -1.715791,-0.126315 -1.4,-0.242106 -2.389473,-0.926316 -2.968422,-2.042106 -0.389471,-0.747368 -0.589472,-1.673684 -0.589472,-2.8 0,-1.326315 0.305262,-2.4 0.894736,-3.242105 0.473686,-0.663158 1.073684,-1.136842 1.821052,-1.389474 0.705264,-0.242105 1.600002,-0.378947 2.673687,-0.378947 h 3.799999 v 1.821053 H 91.9547 c -1.063157,0 -1.852631,0.231579 -2.357893,0.736842 -0.421053,0.431579 -0.621054,1.168421 -0.621054,2.263158 0,1.473684 0.315789,2.4 0.957895,2.852631 0.452631,0.31579 1.157894,0.452632 2.126316,0.452632 h 3.421053 z m 4.200001,-1.842105 v 3.68421 h -2.368423 v -9.989473 h 5.463155 c 1.57895,0 2.71579,0.189473 3.33685,0.557894 0.47368,0.252632 0.81052,0.589474 1.03157,1.021053 0.22106,0.378947 0.31579,0.778947 0.31579,1.210526 0,1.505264 -0.72631,2.463158 -2.16842,2.905264 0.50527,0.147368 0.86316,0.315789 1.09474,0.494736 0.58947,0.505264 0.90526,1.284211 0.95789,2.294737 0.0632,0.71579 0.16842,1.252632 0.28421,1.51579 h -2.71579 c -0.0842,-0.263158 -0.16842,-0.726316 -0.25263,-1.442106 -0.0526,-0.378947 -0.10526,-0.68421 -0.16842,-0.894736 -0.0632,-0.221053 -0.16842,-0.431579 -0.30526,-0.621053 -0.30526,-0.410526 -0.77895,-0.6 -1.41053,-0.715789 -0.31579,-0.06316 -0.70526,-0.02105 -1.17895,-0.02105 z m 0,-1.842105 h 3.368422 c 0.55789,0 0.95789,-0.09474 1.2,-0.242106 0.36842,-0.221052 0.55789,-0.621052 0.55789,-1.168421 0,-0.621052 -0.28421,-0.978947 -0.82105,-1.147368 -0.18948,-0.06316 -0.50526,-0.07368 -0.92632,-0.07368 H 99.691542 V 24.8965 Z m 9.736842,-4.463158 h 2.36842 v 9.989473 h -2.36842 z m 13.66316,4.2 v 1.578947 h -6.56842 v 4.210526 h -2.63159 v -5.210526 c 0.26316,-1.505263 0.25264,-2.484211 0.56842,-2.936842 0.56843,-0.91579 1.52632,-1.484211 2.84211,-1.694737 0.50527,-0.07368 1.18948,-0.147368 1.98948,-0.147368 h 3.8 v 1.831579 h -3.49474 c -1.12632,0 -1.81053,0.07368 -2.13684,0.210526 -0.64211,0.242105 -0.93684,0.715789 -0.93684,1.505263 v 0.642105 h 6.56842 z m 11.05263,0 v 1.578947 h -6.83158 v 4.210526 h -2.36842 v -5.210526 c 0,-1.505263 0.14737,-2.484211 0.45263,-2.936842 0.56842,-0.91579 1.49474,-1.484211 2.8,-1.694737 0.50526,-0.07368 1.14737,-0.147368 1.93684,-0.147368 h 4.02106 v 1.831579 h -3.72632 c -1.11579,0 -1.83158,0.07368 -2.14737,0.210526 -0.6421,0.242105 -0.96842,0.715789 -0.96842,1.505263 v 0.642105 h 6.83158 z m 10.25264,-4.2 v 1.831579 h -3.21053 c -0.90526,0 -1.54737,0.0421 -1.91579,0.168421 -0.4,0.126315 -0.73684,0.4 -1.01053,0.821052 -0.14737,0.252632 -0.25263,0.589474 -0.30526,1.378948 h 6.44211 v 1.578947 h -6.44211 c 0.0526,0.789474 0.27368,1.294737 0.62105,1.673684 0.18948,0.168421 0.4,0.347369 0.65263,0.442106 0.25264,0.09474 0.58948,0.157894 1.01053,0.210526 0.28421,0.03158 0.64211,0.05263 1.04211,0.05263 h 3.10526 v 1.842106 h -3.21053 c -0.86316,0 -1.6,-0.06316 -2.25263,-0.157895 -0.73684,-0.105263 -1.37895,-0.336842 -1.88421,-0.705263 -0.50526,-0.347369 -0.92632,-0.852632 -1.24211,-1.484211 -0.38947,-0.778947 -0.58947,-1.694737 -0.58947,-2.715789 0,-1.726316 0.61053,-3.052632 1.82105,-4.010527 0.47369,-0.368421 0.98948,-0.631579 1.54737,-0.747368 0.44211,-0.09474 0.98948,-0.157895 1.68421,-0.157895 h 4.13685 z m 4.2,6.305263 v 3.68421 h -2.36843 v -9.989473 h 5.56843 c 1.6,0 2.71578,0.189473 3.34736,0.557894 0.45264,0.252632 0.78948,0.589474 1.03158,1.021053 0.2,0.378947 0.31579,0.778947 0.31579,1.210526 0,1.505264 -0.72631,2.463158 -2.18947,2.905264 0.50526,0.147368 0.87368,0.315789 1.09474,0.494736 0.58947,0.505264 0.90526,1.284211 0.97894,2.294737 0.0632,0.71579 0.14737,1.252632 0.27369,1.51579 h -2.71579 c -0.0842,-0.263158 -0.16842,-0.726316 -0.25263,-1.442106 -0.0316,-0.378947 -0.10527,-0.68421 -0.16843,-0.894736 -0.0632,-0.221053 -0.16842,-0.431579 -0.30526,-0.621053 -0.30526,-0.410526 -0.77895,-0.6 -1.41052,-0.715789 -0.31579,-0.06316 -0.70527,-0.02105 -1.17895,-0.02105 z m 0,-1.842105 h 3.46315 c 0.56842,0 0.97895,-0.09474 1.21053,-0.242106 0.35789,-0.221052 0.53684,-0.621052 0.53684,-1.168421 0,-0.621052 -0.27368,-0.978947 -0.82105,-1.147368 -0.18947,-0.06316 -0.48421,-0.07368 -0.92632,-0.07368 h -3.46315 z"
       style="fill:#e96e2a;fill-opacity:1;stroke-width:0.10526315"
       inkscape:export-xdpi="96"
       inkscape:export-ydpi="96" />
    <path
       inkscape:export-ydpi="96"
       inkscape:export-xdpi="96"
       style="fill:#e96e2a;fill-opacity:1;stroke-width:0.10526315"
       d="m 103.47263,124.57744 v 1.8421 h -3.915788 c -0.757897,0 -1.326317,-0.0632 -1.715791,-0.12631 -1.4,-0.24211 -2.389473,-0.92632 -2.968422,-2.04211 -0.389471,-0.74737 -0.589472,-1.67368 -0.589472,-2.8 0,-1.32632 0.305262,-2.4 0.894736,-3.24211 0.473686,-0.66315 1.073684,-1.13684 1.821052,-1.38947 0.705264,-0.2421 1.600002,-0.37895 2.673687,-0.37895 h 3.799998 v 1.82106 h -3.526316 c -1.063157,0 -1.852631,0.23158 -2.357893,0.73684 -0.421053,0.43158 -0.621054,1.16842 -0.621054,2.26316 0,1.47368 0.315789,2.4 0.957895,2.85263 0.452631,0.31579 1.157894,0.45263 2.126318,0.45263 h 3.42105 z m 4.2,-1.84211 v 3.68421 h -2.36842 v -9.98947 h 5.46316 c 1.57894,0 2.71579,0.18947 3.33684,0.55789 0.47368,0.25263 0.81052,0.58948 1.03158,1.02105 0.22105,0.37895 0.31579,0.77895 0.31579,1.21053 0,1.50526 -0.72632,2.46316 -2.16843,2.90526 0.50527,0.14737 0.86316,0.31579 1.09474,0.49474 0.58947,0.50526 0.90527,1.28421 0.9579,2.29474 0.0632,0.71579 0.16842,1.25263 0.28421,1.51579 h -2.71579 c -0.0842,-0.26316 -0.16842,-0.72632 -0.25263,-1.44211 -0.0526,-0.37895 -0.10527,-0.68421 -0.16842,-0.89473 -0.0632,-0.22106 -0.16843,-0.43158 -0.30527,-0.62106 -0.30526,-0.41052 -0.77894,-0.6 -1.41052,-0.71579 -0.31579,-0.0632 -0.70527,-0.0211 -1.17895,-0.0211 z m 0,-1.8421 h 3.36842 c 0.55789,0 0.9579,-0.0947 1.2,-0.24211 0.36842,-0.22105 0.5579,-0.62105 0.5579,-1.16842 0,-0.62105 -0.28421,-0.97895 -0.82106,-1.14737 -0.18947,-0.0632 -0.50526,-0.0737 -0.92631,-0.0737 h -3.36842 v 2.63158 z m 9.73684,-4.46316 h 2.36842 v 9.98947 h -2.36842 z m 13.66316,4.2 v 1.57894 h -6.56842 v 4.21053 h -2.63158 v -5.21053 c 0.26316,-1.50526 0.25263,-2.48421 0.56842,-2.93684 0.56842,-0.91579 1.52631,-1.48421 2.84211,-1.69473 0.50526,-0.0737 1.18947,-0.14737 1.98947,-0.14737 h 3.8 v 1.83158 h -3.49474 c -1.12631,0 -1.81052,0.0737 -2.13684,0.21052 -0.6421,0.24211 -0.93684,0.71579 -0.93684,1.50527 v 0.6421 h 6.56842 z m 11.05265,0 v 1.57894 h -6.8316 v 4.21053 h -2.36842 v -5.21053 c 0,-1.50526 0.14737,-2.48421 0.45263,-2.93684 0.56842,-0.91579 1.49474,-1.48421 2.8,-1.69473 0.50527,-0.0737 1.14737,-0.14737 1.93685,-0.14737 h 4.02106 v 1.83158 h -3.72633 c -1.11579,0 -1.83158,0.0737 -2.14736,0.21052 -0.64211,0.24211 -0.96843,0.71579 -0.96843,1.50527 v 0.6421 h 6.8316 z m 10.25263,-4.2 v 1.83158 h -3.21054 c -0.90525,0 -1.54737,0.0421 -1.91579,0.16842 -0.4,0.12631 -0.73684,0.4 -1.01052,0.82105 -0.14737,0.25263 -0.25264,0.58947 -0.30527,1.37895 h 6.44212 v 1.57894 h -6.44212 c 0.0526,0.78948 0.27369,1.29474 0.62107,1.67369 0.18947,0.16842 0.4,0.34737 0.65263,0.4421 0.25262,0.0947 0.58947,0.1579 1.01052,0.21053 0.2842,0.0316 0.6421,0.0526 1.0421,0.0526 h 3.10526 v 1.84211 h -3.21052 c -0.86316,0 -1.59999,-0.0632 -2.25263,-0.1579 -0.73685,-0.10526 -1.37894,-0.33684 -1.88422,-0.70526 -0.50525,-0.34737 -0.9263,-0.85263 -1.24209,-1.48421 -0.38948,-0.77895 -0.58948,-1.69474 -0.58948,-2.71579 0,-1.72632 0.61053,-3.05263 1.82106,-4.01053 0.47368,-0.36842 0.98946,-0.63158 1.54737,-0.74737 0.4421,-0.0947 0.98946,-0.15789 1.68421,-0.15789 h 4.13684 z m 4.19999,6.30526 v 3.68421 h -2.36842 v -9.98947 h 5.56842 c 1.60001,0 2.7158,0.18947 3.34738,0.55789 0.45263,0.25263 0.78947,0.58948 1.03157,1.02105 0.20001,0.37895 0.3158,0.77895 0.3158,1.21053 0,1.50526 -0.72632,2.46316 -2.18948,2.90526 0.50527,0.14737 0.87369,0.31579 1.09474,0.49474 0.58946,0.50526 0.90526,1.28421 0.97895,2.29474 0.0632,0.71579 0.14736,1.25263 0.27368,1.51579 h -2.7158 c -0.0842,-0.26316 -0.16842,-0.72632 -0.25262,-1.44211 -0.0316,-0.37895 -0.10527,-0.68421 -0.16843,-0.89473 -0.0631,-0.22106 -0.16842,-0.43158 -0.30527,-0.62106 -0.30526,-0.41052 -0.77894,-0.6 -1.41052,-0.71579 -0.31578,-0.0632 -0.70527,-0.0211 -1.17894,-0.0211 z m 0,-1.8421 h 3.46316 c 0.56843,0 0.97894,-0.0947 1.21052,-0.24211 0.3579,-0.22105 0.53684,-0.62105 0.53684,-1.16842 0,-0.62105 -0.27368,-0.97895 -0.82105,-1.14737 -0.18947,-0.0632 -0.48421,-0.0737 -0.92631,-0.0737 h -3.46316 z"
       class="st0"
       id="XMLID_78_-0-6"
       inkscape:connector-curvature="0" />
    <path
       inkscape:export-ydpi="96"
       inkscape:export-xdpi="96"
       style="fill:#e96e2a;fill-opacity:1;stroke-width:0.10526316"
       d="m 96.480069,65.707635 v 1.84211 H 92.56428 c -0.757898,0 -1.326317,-0.0632 -1.715792,-0.12632 -1.4,-0.2421 -2.389472,-0.92631 -2.968421,-2.0421 -0.389471,-0.74737 -0.589472,-1.67369 -0.589472,-2.8 0,-1.32632 0.305262,-2.4 0.894736,-3.24211 0.473686,-0.66316 1.073684,-1.13684 1.821052,-1.38947 0.705263,-0.24211 1.600001,-0.37895 2.673687,-0.37895 h 3.799999 v 1.82105 h -3.526317 c -1.063157,0 -1.852631,0.23158 -2.357893,0.73684 -0.421053,0.43158 -0.621054,1.16843 -0.621054,2.26316 0,1.47369 0.315789,2.4 0.957894,2.85263 0.452632,0.3158 1.157895,0.45264 2.126317,0.45264 h 3.421053 z"
       class="st0"
       id="XMLID_78_-0-6-5-6"
       inkscape:connector-curvature="0"
       sodipodi:nodetypes="ccsccsccsccscscscc"
       inkscape:export-filename="C:\Produto\ConfigCriffer\projeto\novoico.png" />
    <g
       id="g4408"
       inkscape:export-filename="/home/roberto/Produto/SoftwareCriffer/0.1.0/projeto/splash.png"
       inkscape:export-xdpi="90"
       inkscape:export-ydpi="90"
       style="stroke:none"
       transform="translate(1.2095238,9.2730161)">
      <rect
         y="149.03493"
         x="16.731743"
         height="45.267696"
         width="85.271431"
         id="rect4406"
         style="fill:#ffffff;fill-opacity:1;stroke:none" />
      <g
         transform="translate(-3.2608329,-5.0765142)"
         id="g4400"
         style="stroke:none">
        <text
           xml:space="preserve"
           style="font-size:11.28888893px;font-style:normal;font-variant:normal;font-weight:normal;font-stretch:normal;line-height:125%;letter-spacing:0px;word-spacing:0px;fill:#e96e2a;fill-opacity:1;stroke:none;font-family:HandelGotDBol;-inkscape-font-specification:HandelGotDBol"
           x="38.939816"
           y="183.39293"
           id="text3541"
           sodipodi:linespacing="125%"><tspan
             sodipodi:role="line"
             id="tspan3543"
             x="38.939816"
             y="183.39293">CRIFFER</tspan></text>
        <text
           xml:space="preserve"
           style="font-size:11.28888893px;font-style:normal;font-variant:normal;font-weight:normal;font-stretch:normal;line-height:125%;letter-spacing:0px;word-spacing:0px;fill:#000000;fill-opacity:1;stroke:none;font-family:HandelGotDBol;-inkscape-font-specification:HandelGotDBol"
           x="39.107937"
           y="174.83809"
           id="text4313"
           sodipodi:linespacing="125%"><tspan
             sodipodi:role="line"
             id="tspan4315"
             x="39.107937"
             y="174.83809"
             style="font-size:5.64444447px;fill:#e96e2a;fill-opacity:1;stroke:none">SUÍTE</tspan></text>
      </g>
      <text
         sodipodi:linespacing="125%"
         id="text4331"
         y="191.48923"
         x="92.609192"
         style="font-size:11.28888893px;font-style:normal;font-variant:normal;font-weight:normal;font-stretch:normal;line-height:125%;letter-spacing:0px;word-spacing:0px;fill:#000000;fill-opacity:1;stroke:none;font-family:HandelGotDBol;-inkscape-font-specification:HandelGotDBol"
         xml:space="preserve"><tspan
           style="font-size:3.38666677px;stroke:none"
           y="191.48923"
           x="92.609192"
           id="tspan4333"
           sodipodi:role="line">v 1.0</tspan></text>
    </g>
    <g
       id="g4442"
       inkscape:export-filename="/home/roberto/Produto/SoftwareCriffer/0.1.0/Installer/config/watermark.png"
       inkscape:export-xdpi="96"
       inkscape:export-ydpi="96">
      <rect
         inkscape:export-filename="/home/roberto/Produto/SoftwareCriffer/0.1.0/Installer/config/watermark.png"
         inkscape:export-ydpi="96"
         inkscape:export-xdpi="96"
         y="18.338343"
         x="21.186853"
         height="105.52837"
         width="52.876293"
         id="rect4485"
         style="fill:#ffffff;fill-opacity:1;stroke:none;stroke-width:0.30495760000000000;stroke-miterlimit:4;stroke-dasharray:none;stroke-dashoffset:0;stroke-opacity:1" />
      <text
         inkscape:export-ydpi="96"
         inkscape:export-xdpi="96"
         inkscape:export-filename="/home/roberto/Produto/SoftwareCriffer/0.1.0/Installer/config/watermark.png"
         transform="matrix(0,-1,1,0,0,0)"
         sodipodi:linespacing="125%"
         id="text4418"
         y="50.905521"
         x="-115.97736"
         style="font-size:11.28888893px;font-style:normal;font-variant:normal;font-weight:normal;font-stretch:normal;line-height:125%;letter-spacing:0px;word-spacing:0px;fill:#000000;fill-opacity:1;stroke:none;font-family:HandelGotDBol;-inkscape-font-specification:HandelGotDBol"
         xml:space="preserve"><tspan
           style="font-size:5.64444447px;fill:#e96e2a;fill-opacity:1"
           y="50.905521"
           x="-115.97736"
           id="tspan4420"
           sodipodi:role="line">SUÍTE</tspan></text>
      <text
         inkscape:export-ydpi="96"
         inkscape:export-xdpi="96"
         inkscape:export-filename="/home/roberto/Produto/SoftwareCriffer/0.1.0/Installer/config/watermark.png"
         transform="matrix(0,-1,1,0,0,0)"
         sodipodi:linespacing="125%"
         id="text4422"
         y="60.510841"
         x="-116.14548"
         style="font-size:11.28888893px;font-style:normal;font-variant:normal;font-weight:normal;font-stretch:normal;line-height:125%;letter-spacing:0px;word-spacing:0px;fill:#e96e2a;fill-opacity:1;stroke:none;font-family:HandelGotDBol;-inkscape-font-specification:HandelGotDBol"
         xml:space="preserve"><tspan
           y="60.510841"
           x="-116.14548"
           id="tspan4424"
           sodipodi:role="line">CRIFFER</tspan></text>
    </g>
  </g>
</svg>
